<svg viewBox="-200 -120 400 240" xmlns="http://www.w3.org/2000/svg" xmlns:bx="https://boxy-svg.com">
  <defs>
    <filter id="a" width="1000%" height="1000%" x="-500%" y="-500%" color-interpolation-filters="sRGB" bx:preset="drop-shadow 1 10 10 0 0.5 rgba(0,0,0,0.3)">
      <feGaussianBlur in="SourceAlpha"></feGaussianBlur>
      <feOffset dx="10" dy="10"></feOffset>
      <feComponentTransfer result="offsetblur">
        <feFuncA type="linear"></feFuncA>
      </feComponentTransfer>
      <feFlood flood-color="rgba(0,0,0,0.3)"></feFlood>
      <feComposite in2="offsetblur" operator="in"></feComposite>
      <feMerge>
        <feMergeNode></feMergeNode>
        <feMergeNode in="SourceGraphic"></feMergeNode>
      </feMerge>
    </filter>
  </defs>
  <path stroke="#000" d="m 0 -100 c -20 0 -170 70 -180 80 s -10 30 0 40 s 160 80 180 80 s 170 -70 180 -80 s 10 -30 0 -40 s -160 -80 -180 -80 z" filter="url(#a)" style="stroke-width: 3px; stroke-opacity: 0.37; fill: rgb(255, 255, 255);" transform="matrix(1, 0, 0, 1,0, 0)"></path>
  <path d="M -85.786 40.28 L -97.146 40.28 Q -103.626 40.28 -106.346 37.16 Q -109.066 34.04 -109.066 28.76 L -109.066 25.48 Q -117.626 23.8 -121.666 16.48 Q -125.706 9.16 -125.706 -2.92 Q -125.706 -16.6 -120.386 -24.2 Q -115.066 -31.8 -103.866 -31.8 Q -92.666 -31.8 -87.346 -24.2 Q -82.026 -16.6 -82.026 -2.92 Q -82.026 9.16 -86.066 16.48 Q -90.106 23.8 -98.666 25.48 L -98.666 31.72 L -85.786 31.72 Z M -103.866 16.28 Q -98.746 16.28 -96.786 12.48 Q -94.826 8.68 -94.826 1.88 L -94.826 -7.8 Q -94.826 -14.52 -96.786 -18.32 Q -98.746 -22.12 -103.866 -22.12 Q -108.986 -22.12 -110.946 -18.32 Q -112.906 -14.52 -112.906 -7.8 L -112.906 1.96 Q -112.906 8.68 -110.946 12.48 Q -108.986 16.28 -103.866 16.28 Z M -73.703 -30.84 L -54.103 -30.84 Q -45.863 -30.84 -41.503 -26.84 Q -37.143 -22.84 -37.143 -15.96 Q -37.143 -11.16 -39.503 -8.32 Q -41.863 -5.48 -46.263 -4.2 L -46.263 -3.72 Q -41.063 -2.44 -38.223 0.76 Q -35.383 3.96 -35.383 9.64 Q -35.383 16.68 -39.823 20.84 Q -44.263 25 -52.263 25 L -73.703 25 Z M -55.943 16.6 Q -51.623 16.6 -49.623 15.16 Q -47.623 13.72 -47.623 9.88 L -47.623 7.56 Q -47.623 3.72 -49.623 2.28 Q -51.623 0.84 -55.943 0.84 L -62.023 0.84 L -62.023 16.6 Z M -57.463 -7.16 Q -53.223 -7.16 -51.303 -8.56 Q -49.383 -9.96 -49.383 -13.64 L -49.383 -16.04 Q -49.383 -19.72 -51.303 -21.08 Q -53.223 -22.44 -57.463 -22.44 L -62.023 -22.44 L -62.023 -7.16 Z M -11.023 -30.84 L 6.977 -30.84 Q 18.257 -30.84 23.697 -23.64 Q 29.137 -16.44 29.137 -2.92 Q 29.137 10.6 23.697 17.8 Q 18.257 25 6.977 25 L -11.023 25 Z M 6.177 15.56 Q 11.537 15.56 14.017 12.12 Q 16.497 8.68 16.497 2.12 L 16.497 -8.04 Q 16.497 -14.52 14.017 -17.96 Q 11.537 -21.4 6.177 -21.4 L 0.817 -21.4 L 0.817 15.56 Z M 38.26 25 L 38.26 -30.84 L 73.94 -30.84 L 73.94 -21 L 50.26 -21 L 50.26 -8.2 L 73.14 -8.2 L 73.14 1.64 L 50.26 1.64 L 50.26 15.16 L 73.94 15.16 L 73.94 25 Z M 95.383 25 L 80.583 -30.84 L 93.943 -30.84 L 100.503 -2.44 L 103.783 13.64 L 104.423 13.64 L 107.783 -2.44 L 114.423 -30.84 L 127.143 -30.84 L 112.343 25 Z" style="fill: rgb(146, 32, 6); white-space: pre;"></path>
</svg>
